<mxfile host="app.diagrams.net" modified="2024-03-15T01:31:33.214Z" agent="Mozilla/5.0 (Windows NT 10.0; Win64; x64) AppleWebKit/537.36 (KHTML, like Gecko) Chrome/122.0.0.0 Safari/537.36" etag="Nf6bYTBhFgN_DR_Wqs9e" version="24.0.2" type="device">
  <diagram name="Página-1" id="TsvmExbYLuAgtq4yQCSS">
    <mxGraphModel dx="210" dy="367" grid="0" gridSize="10" guides="1" tooltips="1" connect="1" arrows="1" fold="1" page="0" pageScale="1" pageWidth="827" pageHeight="1169" math="0" shadow="0">
      <root>
        <mxCell id="0" />
        <mxCell id="1" parent="0" />
        <mxCell id="saADbOBIU8EQ5xlVWr3z-1" value="" style="rounded=0;whiteSpace=wrap;html=1;gradientColor=none;fillColor=default;" vertex="1" parent="1">
          <mxGeometry x="79" y="570" width="2001" height="190" as="geometry" />
        </mxCell>
        <mxCell id="owV9URa_r3K--Gm2qVyX-61" value="" style="rounded=0;whiteSpace=wrap;html=1;gradientColor=none;fillColor=default;" parent="1" vertex="1">
          <mxGeometry x="78.5" y="80" width="2001.5" height="160" as="geometry" />
        </mxCell>
        <mxCell id="owV9URa_r3K--Gm2qVyX-1" value="" style="rounded=0;whiteSpace=wrap;html=1;gradientColor=none;fillColor=default;" parent="1" vertex="1">
          <mxGeometry x="76" y="300" width="2004" height="205" as="geometry" />
        </mxCell>
        <mxCell id="owV9URa_r3K--Gm2qVyX-2" value="Aluno" style="rounded=0;whiteSpace=wrap;html=1;textDirection=vertical-lr;rotation=-180;" parent="1" vertex="1">
          <mxGeometry x="22.5" y="300" width="56" height="205" as="geometry" />
        </mxCell>
        <mxCell id="owV9URa_r3K--Gm2qVyX-13" value="" style="ellipse;whiteSpace=wrap;html=1;aspect=fixed;" parent="1" vertex="1">
          <mxGeometry x="102.5" y="410" width="40" height="40" as="geometry" />
        </mxCell>
        <mxCell id="saADbOBIU8EQ5xlVWr3z-23" style="edgeStyle=orthogonalEdgeStyle;rounded=0;orthogonalLoop=1;jettySize=auto;html=1;" edge="1" parent="1" source="owV9URa_r3K--Gm2qVyX-14" target="saADbOBIU8EQ5xlVWr3z-21">
          <mxGeometry relative="1" as="geometry" />
        </mxCell>
        <mxCell id="owV9URa_r3K--Gm2qVyX-14" value="Solicitar Dieta" style="whiteSpace=wrap;html=1;rounded=1;" parent="1" vertex="1">
          <mxGeometry x="190" y="400" width="120" height="60" as="geometry" />
        </mxCell>
        <mxCell id="owV9URa_r3K--Gm2qVyX-15" value="" style="edgeStyle=orthogonalEdgeStyle;rounded=0;orthogonalLoop=1;jettySize=auto;html=1;" parent="1" source="owV9URa_r3K--Gm2qVyX-13" target="owV9URa_r3K--Gm2qVyX-14" edge="1">
          <mxGeometry relative="1" as="geometry" />
        </mxCell>
        <mxCell id="owV9URa_r3K--Gm2qVyX-62" value="Nutricionista" style="rounded=0;whiteSpace=wrap;html=1;textDirection=vertical-lr;rotation=-180;" parent="1" vertex="1">
          <mxGeometry x="22.500000000000014" y="80" width="56" height="160" as="geometry" />
        </mxCell>
        <mxCell id="owV9URa_r3K--Gm2qVyX-63" value="Consultar solicitações de dieta" style="whiteSpace=wrap;html=1;rounded=1;" parent="1" vertex="1">
          <mxGeometry x="557.5" y="130" width="120" height="60" as="geometry" />
        </mxCell>
        <mxCell id="owV9URa_r3K--Gm2qVyX-81" value="" style="ellipse;whiteSpace=wrap;html=1;aspect=fixed;strokeWidth=3;" parent="1" vertex="1">
          <mxGeometry x="1120" y="135" width="50" height="50" as="geometry" />
        </mxCell>
        <mxCell id="saADbOBIU8EQ5xlVWr3z-2" value="Sistema" style="rounded=0;whiteSpace=wrap;html=1;textDirection=vertical-lr;rotation=-180;" vertex="1" parent="1">
          <mxGeometry x="22.5" y="570" width="56" height="190" as="geometry" />
        </mxCell>
        <mxCell id="saADbOBIU8EQ5xlVWr3z-3" value="" style="ellipse;whiteSpace=wrap;html=1;aspect=fixed;" vertex="1" parent="1">
          <mxGeometry x="102.5" y="645" width="40" height="40" as="geometry" />
        </mxCell>
        <mxCell id="saADbOBIU8EQ5xlVWr3z-4" value="" style="edgeStyle=orthogonalEdgeStyle;rounded=0;orthogonalLoop=1;jettySize=auto;html=1;entryX=0;entryY=0.5;entryDx=0;entryDy=0;" edge="1" parent="1" source="saADbOBIU8EQ5xlVWr3z-5" target="saADbOBIU8EQ5xlVWr3z-11">
          <mxGeometry relative="1" as="geometry">
            <mxPoint x="392.5" y="665" as="targetPoint" />
          </mxGeometry>
        </mxCell>
        <mxCell id="saADbOBIU8EQ5xlVWr3z-5" value="Cadastrar solicitação de uma dieta" style="whiteSpace=wrap;html=1;rounded=1;" vertex="1" parent="1">
          <mxGeometry x="190" y="635" width="120" height="60" as="geometry" />
        </mxCell>
        <mxCell id="saADbOBIU8EQ5xlVWr3z-6" value="" style="edgeStyle=orthogonalEdgeStyle;rounded=0;orthogonalLoop=1;jettySize=auto;html=1;" edge="1" parent="1" source="saADbOBIU8EQ5xlVWr3z-3" target="saADbOBIU8EQ5xlVWr3z-5">
          <mxGeometry relative="1" as="geometry" />
        </mxCell>
        <mxCell id="saADbOBIU8EQ5xlVWr3z-11" value="" style="ellipse;whiteSpace=wrap;html=1;aspect=fixed;strokeWidth=3;" vertex="1" parent="1">
          <mxGeometry x="360" y="640" width="50" height="50" as="geometry" />
        </mxCell>
        <mxCell id="saADbOBIU8EQ5xlVWr3z-16" value="informações do aluno" style="edgeStyle=orthogonalEdgeStyle;rounded=0;orthogonalLoop=1;jettySize=auto;html=1;dashed=1;entryX=0.5;entryY=0;entryDx=0;entryDy=0;endArrow=block;endFill=0;startArrow=oval;startFill=0;exitX=0.5;exitY=1;exitDx=0;exitDy=0;" edge="1" parent="1" source="owV9URa_r3K--Gm2qVyX-14" target="saADbOBIU8EQ5xlVWr3z-5">
          <mxGeometry relative="1" as="geometry">
            <mxPoint x="260" y="440" as="sourcePoint" />
            <mxPoint x="781" y="185" as="targetPoint" />
          </mxGeometry>
        </mxCell>
        <mxCell id="saADbOBIU8EQ5xlVWr3z-20" style="edgeStyle=orthogonalEdgeStyle;rounded=0;orthogonalLoop=1;jettySize=auto;html=1;" edge="1" parent="1" source="saADbOBIU8EQ5xlVWr3z-18" target="owV9URa_r3K--Gm2qVyX-63">
          <mxGeometry relative="1" as="geometry" />
        </mxCell>
        <mxCell id="saADbOBIU8EQ5xlVWr3z-18" value="" style="ellipse;whiteSpace=wrap;html=1;aspect=fixed;" vertex="1" parent="1">
          <mxGeometry x="470" y="140" width="40" height="40" as="geometry" />
        </mxCell>
        <mxCell id="saADbOBIU8EQ5xlVWr3z-43" style="edgeStyle=orthogonalEdgeStyle;rounded=0;orthogonalLoop=1;jettySize=auto;html=1;" edge="1" parent="1" source="saADbOBIU8EQ5xlVWr3z-21" target="saADbOBIU8EQ5xlVWr3z-42">
          <mxGeometry relative="1" as="geometry" />
        </mxCell>
        <mxCell id="saADbOBIU8EQ5xlVWr3z-21" value="" style="points=[[0.145,0.145,0],[0.5,0,0],[0.855,0.145,0],[1,0.5,0],[0.855,0.855,0],[0.5,1,0],[0.145,0.855,0],[0,0.5,0]];shape=mxgraph.bpmn.event;html=1;verticalLabelPosition=bottom;labelBackgroundColor=#ffffff;verticalAlign=top;align=center;perimeter=ellipsePerimeter;outlineConnect=0;aspect=fixed;outline=throwing;symbol=general;" vertex="1" parent="1">
          <mxGeometry x="790" y="405" width="50" height="50" as="geometry" />
        </mxCell>
        <mxCell id="saADbOBIU8EQ5xlVWr3z-24" value="" style="ellipse;whiteSpace=wrap;html=1;aspect=fixed;" vertex="1" parent="1">
          <mxGeometry x="470" y="645" width="40" height="40" as="geometry" />
        </mxCell>
        <mxCell id="saADbOBIU8EQ5xlVWr3z-25" value="" style="edgeStyle=orthogonalEdgeStyle;rounded=0;orthogonalLoop=1;jettySize=auto;html=1;entryX=0;entryY=0.5;entryDx=0;entryDy=0;" edge="1" parent="1" source="saADbOBIU8EQ5xlVWr3z-26" target="saADbOBIU8EQ5xlVWr3z-28">
          <mxGeometry relative="1" as="geometry">
            <mxPoint x="760" y="665" as="targetPoint" />
          </mxGeometry>
        </mxCell>
        <mxCell id="saADbOBIU8EQ5xlVWr3z-26" value="Obter solicitações de dieta" style="whiteSpace=wrap;html=1;rounded=1;" vertex="1" parent="1">
          <mxGeometry x="557.5" y="635" width="120" height="60" as="geometry" />
        </mxCell>
        <mxCell id="saADbOBIU8EQ5xlVWr3z-27" value="" style="edgeStyle=orthogonalEdgeStyle;rounded=0;orthogonalLoop=1;jettySize=auto;html=1;" edge="1" parent="1" source="saADbOBIU8EQ5xlVWr3z-24" target="saADbOBIU8EQ5xlVWr3z-26">
          <mxGeometry relative="1" as="geometry" />
        </mxCell>
        <mxCell id="saADbOBIU8EQ5xlVWr3z-28" value="" style="ellipse;whiteSpace=wrap;html=1;aspect=fixed;strokeWidth=3;" vertex="1" parent="1">
          <mxGeometry x="727.5" y="640" width="50" height="50" as="geometry" />
        </mxCell>
        <mxCell id="saADbOBIU8EQ5xlVWr3z-29" value="Informações do&lt;div&gt;Nutricionista&lt;/div&gt;" style="edgeStyle=orthogonalEdgeStyle;rounded=0;orthogonalLoop=1;jettySize=auto;html=1;dashed=1;entryX=0.25;entryY=0;entryDx=0;entryDy=0;endArrow=block;endFill=0;startArrow=oval;startFill=0;exitX=0.25;exitY=1;exitDx=0;exitDy=0;" edge="1" parent="1" source="owV9URa_r3K--Gm2qVyX-63" target="saADbOBIU8EQ5xlVWr3z-26">
          <mxGeometry x="-0.0787" relative="1" as="geometry">
            <mxPoint x="260" y="450" as="sourcePoint" />
            <mxPoint x="260" y="645" as="targetPoint" />
            <mxPoint as="offset" />
          </mxGeometry>
        </mxCell>
        <mxCell id="saADbOBIU8EQ5xlVWr3z-30" value="Solicitações" style="edgeStyle=orthogonalEdgeStyle;rounded=0;orthogonalLoop=1;jettySize=auto;html=1;dashed=1;entryX=0.75;entryY=1;entryDx=0;entryDy=0;endArrow=block;endFill=0;startArrow=oval;startFill=0;exitX=0.75;exitY=0;exitDx=0;exitDy=0;" edge="1" parent="1" source="saADbOBIU8EQ5xlVWr3z-26" target="owV9URa_r3K--Gm2qVyX-63">
          <mxGeometry x="-0.2135" relative="1" as="geometry">
            <mxPoint x="880" y="160" as="sourcePoint" />
            <mxPoint x="928" y="605" as="targetPoint" />
            <mxPoint as="offset" />
          </mxGeometry>
        </mxCell>
        <mxCell id="saADbOBIU8EQ5xlVWr3z-41" style="edgeStyle=orthogonalEdgeStyle;rounded=0;orthogonalLoop=1;jettySize=auto;html=1;" edge="1" parent="1" source="saADbOBIU8EQ5xlVWr3z-32" target="owV9URa_r3K--Gm2qVyX-81">
          <mxGeometry relative="1" as="geometry" />
        </mxCell>
        <mxCell id="saADbOBIU8EQ5xlVWr3z-32" value="Cadastrar dieta" style="whiteSpace=wrap;html=1;rounded=1;" vertex="1" parent="1">
          <mxGeometry x="890" y="130" width="120" height="60" as="geometry" />
        </mxCell>
        <mxCell id="saADbOBIU8EQ5xlVWr3z-34" value="" style="ellipse;whiteSpace=wrap;html=1;aspect=fixed;" vertex="1" parent="1">
          <mxGeometry x="830" y="645" width="40" height="40" as="geometry" />
        </mxCell>
        <mxCell id="saADbOBIU8EQ5xlVWr3z-35" value="" style="edgeStyle=orthogonalEdgeStyle;rounded=0;orthogonalLoop=1;jettySize=auto;html=1;entryX=0;entryY=0.5;entryDx=0;entryDy=0;" edge="1" parent="1" source="saADbOBIU8EQ5xlVWr3z-36" target="saADbOBIU8EQ5xlVWr3z-38">
          <mxGeometry relative="1" as="geometry">
            <mxPoint x="1120" y="665" as="targetPoint" />
          </mxGeometry>
        </mxCell>
        <mxCell id="saADbOBIU8EQ5xlVWr3z-36" value="Inserir dieta" style="whiteSpace=wrap;html=1;rounded=1;" vertex="1" parent="1">
          <mxGeometry x="917.5" y="635" width="120" height="60" as="geometry" />
        </mxCell>
        <mxCell id="saADbOBIU8EQ5xlVWr3z-37" value="" style="edgeStyle=orthogonalEdgeStyle;rounded=0;orthogonalLoop=1;jettySize=auto;html=1;" edge="1" parent="1" source="saADbOBIU8EQ5xlVWr3z-34" target="saADbOBIU8EQ5xlVWr3z-36">
          <mxGeometry relative="1" as="geometry" />
        </mxCell>
        <mxCell id="saADbOBIU8EQ5xlVWr3z-38" value="" style="ellipse;whiteSpace=wrap;html=1;aspect=fixed;strokeWidth=3;" vertex="1" parent="1">
          <mxGeometry x="1087.5" y="640" width="50" height="50" as="geometry" />
        </mxCell>
        <mxCell id="saADbOBIU8EQ5xlVWr3z-39" value="" style="edgeStyle=orthogonalEdgeStyle;rounded=0;orthogonalLoop=1;jettySize=auto;html=1;dashed=1;endArrow=block;endFill=0;startArrow=oval;startFill=0;exitX=0.5;exitY=1;exitDx=0;exitDy=0;" edge="1" parent="1" source="saADbOBIU8EQ5xlVWr3z-32" target="saADbOBIU8EQ5xlVWr3z-36">
          <mxGeometry relative="1" as="geometry">
            <mxPoint x="598" y="200" as="sourcePoint" />
            <mxPoint x="598" y="645" as="targetPoint" />
            <Array as="points">
              <mxPoint x="950" y="460" />
              <mxPoint x="978" y="460" />
            </Array>
          </mxGeometry>
        </mxCell>
        <mxCell id="saADbOBIU8EQ5xlVWr3z-45" style="edgeStyle=orthogonalEdgeStyle;rounded=0;orthogonalLoop=1;jettySize=auto;html=1;" edge="1" parent="1" source="saADbOBIU8EQ5xlVWr3z-42" target="saADbOBIU8EQ5xlVWr3z-58">
          <mxGeometry relative="1" as="geometry">
            <mxPoint x="1500" y="410" as="targetPoint" />
          </mxGeometry>
        </mxCell>
        <mxCell id="saADbOBIU8EQ5xlVWr3z-42" value="Consultar Dieta" style="whiteSpace=wrap;html=1;rounded=1;" vertex="1" parent="1">
          <mxGeometry x="1287.5" y="400" width="120" height="60" as="geometry" />
        </mxCell>
        <mxCell id="saADbOBIU8EQ5xlVWr3z-46" value="" style="ellipse;whiteSpace=wrap;html=1;aspect=fixed;" vertex="1" parent="1">
          <mxGeometry x="1200" y="645" width="40" height="40" as="geometry" />
        </mxCell>
        <mxCell id="saADbOBIU8EQ5xlVWr3z-47" value="" style="edgeStyle=orthogonalEdgeStyle;rounded=0;orthogonalLoop=1;jettySize=auto;html=1;entryX=0;entryY=0.5;entryDx=0;entryDy=0;" edge="1" parent="1" source="saADbOBIU8EQ5xlVWr3z-48" target="saADbOBIU8EQ5xlVWr3z-50">
          <mxGeometry relative="1" as="geometry">
            <mxPoint x="1490" y="665" as="targetPoint" />
          </mxGeometry>
        </mxCell>
        <mxCell id="saADbOBIU8EQ5xlVWr3z-48" value="Obter dieta" style="whiteSpace=wrap;html=1;rounded=1;" vertex="1" parent="1">
          <mxGeometry x="1287.5" y="635" width="120" height="60" as="geometry" />
        </mxCell>
        <mxCell id="saADbOBIU8EQ5xlVWr3z-49" value="" style="edgeStyle=orthogonalEdgeStyle;rounded=0;orthogonalLoop=1;jettySize=auto;html=1;" edge="1" parent="1" source="saADbOBIU8EQ5xlVWr3z-46" target="saADbOBIU8EQ5xlVWr3z-48">
          <mxGeometry relative="1" as="geometry" />
        </mxCell>
        <mxCell id="saADbOBIU8EQ5xlVWr3z-50" value="" style="ellipse;whiteSpace=wrap;html=1;aspect=fixed;strokeWidth=3;" vertex="1" parent="1">
          <mxGeometry x="1457.5" y="640" width="50" height="50" as="geometry" />
        </mxCell>
        <mxCell id="saADbOBIU8EQ5xlVWr3z-51" value="Informações do&amp;nbsp;&lt;div&gt;aluno&lt;/div&gt;" style="edgeStyle=orthogonalEdgeStyle;rounded=0;orthogonalLoop=1;jettySize=auto;html=1;dashed=1;entryX=0.25;entryY=0;entryDx=0;entryDy=0;endArrow=block;endFill=0;startArrow=oval;startFill=0;exitX=0.25;exitY=1;exitDx=0;exitDy=0;" edge="1" parent="1" source="saADbOBIU8EQ5xlVWr3z-42" target="saADbOBIU8EQ5xlVWr3z-48">
          <mxGeometry relative="1" as="geometry">
            <mxPoint x="598" y="200" as="sourcePoint" />
            <mxPoint x="598" y="645" as="targetPoint" />
          </mxGeometry>
        </mxCell>
        <mxCell id="saADbOBIU8EQ5xlVWr3z-52" style="edgeStyle=orthogonalEdgeStyle;rounded=0;orthogonalLoop=1;jettySize=auto;html=1;dashed=1;entryX=0.75;entryY=1;entryDx=0;entryDy=0;endArrow=block;endFill=0;startArrow=oval;startFill=0;exitX=0.75;exitY=0;exitDx=0;exitDy=0;" edge="1" parent="1" source="saADbOBIU8EQ5xlVWr3z-48" target="saADbOBIU8EQ5xlVWr3z-42">
          <mxGeometry relative="1" as="geometry">
            <mxPoint x="1328" y="450" as="sourcePoint" />
            <mxPoint x="1328" y="645" as="targetPoint" />
          </mxGeometry>
        </mxCell>
        <mxCell id="saADbOBIU8EQ5xlVWr3z-53" value="Dieta" style="edgeLabel;html=1;align=center;verticalAlign=middle;resizable=0;points=[];" vertex="1" connectable="0" parent="saADbOBIU8EQ5xlVWr3z-52">
          <mxGeometry x="0.0315" y="-1" relative="1" as="geometry">
            <mxPoint as="offset" />
          </mxGeometry>
        </mxCell>
        <mxCell id="saADbOBIU8EQ5xlVWr3z-57" style="edgeStyle=orthogonalEdgeStyle;rounded=0;orthogonalLoop=1;jettySize=auto;html=1;" edge="1" parent="1" source="saADbOBIU8EQ5xlVWr3z-55" target="saADbOBIU8EQ5xlVWr3z-32">
          <mxGeometry relative="1" as="geometry" />
        </mxCell>
        <mxCell id="saADbOBIU8EQ5xlVWr3z-55" value="" style="points=[[0.145,0.145,0],[0.5,0,0],[0.855,0.145,0],[1,0.5,0],[0.855,0.855,0],[0.5,1,0],[0.145,0.855,0],[0,0.5,0]];shape=mxgraph.bpmn.event;html=1;verticalLabelPosition=bottom;labelBackgroundColor=#ffffff;verticalAlign=top;align=center;perimeter=ellipsePerimeter;outlineConnect=0;aspect=fixed;outline=throwing;symbol=general;" vertex="1" parent="1">
          <mxGeometry x="759" y="135" width="50" height="50" as="geometry" />
        </mxCell>
        <mxCell id="saADbOBIU8EQ5xlVWr3z-56" style="edgeStyle=orthogonalEdgeStyle;rounded=0;orthogonalLoop=1;jettySize=auto;html=1;entryX=0;entryY=0.5;entryDx=0;entryDy=0;entryPerimeter=0;" edge="1" parent="1" source="owV9URa_r3K--Gm2qVyX-63" target="saADbOBIU8EQ5xlVWr3z-55">
          <mxGeometry relative="1" as="geometry" />
        </mxCell>
        <mxCell id="saADbOBIU8EQ5xlVWr3z-60" value="sim" style="edgeStyle=orthogonalEdgeStyle;rounded=0;orthogonalLoop=1;jettySize=auto;html=1;" edge="1" parent="1" source="saADbOBIU8EQ5xlVWr3z-58" target="saADbOBIU8EQ5xlVWr3z-59">
          <mxGeometry relative="1" as="geometry" />
        </mxCell>
        <mxCell id="saADbOBIU8EQ5xlVWr3z-62" value="não" style="edgeStyle=orthogonalEdgeStyle;rounded=0;orthogonalLoop=1;jettySize=auto;html=1;" edge="1" parent="1" source="saADbOBIU8EQ5xlVWr3z-58" target="saADbOBIU8EQ5xlVWr3z-61">
          <mxGeometry relative="1" as="geometry" />
        </mxCell>
        <mxCell id="saADbOBIU8EQ5xlVWr3z-58" value="Comprar produtos?" style="points=[[0.25,0.25,0],[0.5,0,0],[0.75,0.25,0],[1,0.5,0],[0.75,0.75,0],[0.5,1,0],[0.25,0.75,0],[0,0.5,0]];shape=mxgraph.bpmn.gateway2;html=1;verticalLabelPosition=bottom;labelBackgroundColor=#ffffff;verticalAlign=top;align=center;perimeter=rhombusPerimeter;outlineConnect=0;outline=none;symbol=none;" vertex="1" parent="1">
          <mxGeometry x="1507.5" y="405" width="50" height="50" as="geometry" />
        </mxCell>
        <mxCell id="saADbOBIU8EQ5xlVWr3z-77" style="edgeStyle=orthogonalEdgeStyle;rounded=0;orthogonalLoop=1;jettySize=auto;html=1;" edge="1" parent="1" source="saADbOBIU8EQ5xlVWr3z-59" target="saADbOBIU8EQ5xlVWr3z-76">
          <mxGeometry relative="1" as="geometry" />
        </mxCell>
        <mxCell id="saADbOBIU8EQ5xlVWr3z-59" value="Selecionar produtos da dieta" style="whiteSpace=wrap;html=1;rounded=1;" vertex="1" parent="1">
          <mxGeometry x="1667.5" y="400" width="120" height="60" as="geometry" />
        </mxCell>
        <mxCell id="saADbOBIU8EQ5xlVWr3z-61" value="" style="ellipse;whiteSpace=wrap;html=1;aspect=fixed;strokeWidth=3;" vertex="1" parent="1">
          <mxGeometry x="1507.5" y="310" width="50" height="50" as="geometry" />
        </mxCell>
        <mxCell id="saADbOBIU8EQ5xlVWr3z-64" value="" style="ellipse;whiteSpace=wrap;html=1;aspect=fixed;" vertex="1" parent="1">
          <mxGeometry x="1580" y="645" width="40" height="40" as="geometry" />
        </mxCell>
        <mxCell id="saADbOBIU8EQ5xlVWr3z-65" value="" style="edgeStyle=orthogonalEdgeStyle;rounded=0;orthogonalLoop=1;jettySize=auto;html=1;" edge="1" parent="1" source="saADbOBIU8EQ5xlVWr3z-66" target="saADbOBIU8EQ5xlVWr3z-72">
          <mxGeometry relative="1" as="geometry">
            <mxPoint x="1837.5" y="665" as="targetPoint" />
          </mxGeometry>
        </mxCell>
        <mxCell id="saADbOBIU8EQ5xlVWr3z-66" value="Criar carrinho de compras dos produtos" style="whiteSpace=wrap;html=1;rounded=1;" vertex="1" parent="1">
          <mxGeometry x="1667.5" y="635" width="120" height="60" as="geometry" />
        </mxCell>
        <mxCell id="saADbOBIU8EQ5xlVWr3z-67" value="" style="edgeStyle=orthogonalEdgeStyle;rounded=0;orthogonalLoop=1;jettySize=auto;html=1;" edge="1" parent="1" source="saADbOBIU8EQ5xlVWr3z-64" target="saADbOBIU8EQ5xlVWr3z-66">
          <mxGeometry relative="1" as="geometry" />
        </mxCell>
        <mxCell id="saADbOBIU8EQ5xlVWr3z-71" style="edgeStyle=orthogonalEdgeStyle;rounded=0;orthogonalLoop=1;jettySize=auto;html=1;dashed=1;entryX=0.5;entryY=0;entryDx=0;entryDy=0;endArrow=block;endFill=0;startArrow=oval;startFill=0;exitX=0.5;exitY=1;exitDx=0;exitDy=0;" edge="1" parent="1" source="saADbOBIU8EQ5xlVWr3z-59" target="saADbOBIU8EQ5xlVWr3z-66">
          <mxGeometry relative="1" as="geometry">
            <mxPoint x="1328" y="470" as="sourcePoint" />
            <mxPoint x="1328" y="645" as="targetPoint" />
          </mxGeometry>
        </mxCell>
        <mxCell id="saADbOBIU8EQ5xlVWr3z-74" style="edgeStyle=orthogonalEdgeStyle;rounded=0;orthogonalLoop=1;jettySize=auto;html=1;" edge="1" parent="1" source="saADbOBIU8EQ5xlVWr3z-72" target="saADbOBIU8EQ5xlVWr3z-73">
          <mxGeometry relative="1" as="geometry" />
        </mxCell>
        <mxCell id="saADbOBIU8EQ5xlVWr3z-72" value="Enviar o carrinho de compras para o sistema do supermercado" style="whiteSpace=wrap;html=1;rounded=1;" vertex="1" parent="1">
          <mxGeometry x="1840" y="635" width="120" height="60" as="geometry" />
        </mxCell>
        <mxCell id="saADbOBIU8EQ5xlVWr3z-73" value="" style="ellipse;whiteSpace=wrap;html=1;aspect=fixed;strokeWidth=3;" vertex="1" parent="1">
          <mxGeometry x="2000" y="640" width="50" height="50" as="geometry" />
        </mxCell>
        <mxCell id="saADbOBIU8EQ5xlVWr3z-76" value="" style="ellipse;whiteSpace=wrap;html=1;aspect=fixed;strokeWidth=3;" vertex="1" parent="1">
          <mxGeometry x="1860" y="405" width="50" height="50" as="geometry" />
        </mxCell>
      </root>
    </mxGraphModel>
  </diagram>
</mxfile>
